<svg xmlns="http://www.w3.org/2000/svg" width="56" height="45.043" viewBox="0 0 56 45.043">
  <path id="Path_4089" data-name="Path 4089" d="M52.13,50.043H5.87A4.87,4.87,0,0,1,1,45.174V19.609a4.87,4.87,0,0,1,4.87-4.87H24.13V9.87a4.87,4.87,0,0,1,9.739,0v4.87H52.13A4.87,4.87,0,0,1,57,19.609V45.174A4.87,4.87,0,0,1,52.13,50.043ZM20.5,40.9v0s-.022-.951-.022-.951a13.659,13.659,0,0,0,2.473-1.678,3.688,3.688,0,0,0,.9-1.658,40.937,40.937,0,0,0,.29-4.508c0-2.51-1.258-5.21-4.878-5.21v0c-3.621,0-4.878,2.7-4.878,5.21a41.238,41.238,0,0,0,.29,4.508,3.688,3.688,0,0,0,.9,1.658,13.658,13.658,0,0,0,2.473,1.678s-.017.951-.022.951v0s.035,1.4.035,1.81a2.661,2.661,0,0,1-2.706,2.457h0c-3.157.138-3.9,1.188-3.908,1.2a5.937,5.937,0,0,0-.7,1.247H27.785a5.669,5.669,0,0,0-.709-1.244c-.006-.011-.751-1.06-3.908-1.2h0a2.661,2.661,0,0,1-2.706-2.457C20.459,42.294,20.5,40.9,20.5,40.9ZM31.435,9.87a2.435,2.435,0,0,0-4.87,0v7.3a2.435,2.435,0,1,0,4.87,0Zm23.13,9.739a2.436,2.436,0,0,0-2.435-2.435H33.87a4.87,4.87,0,0,1-9.739,0H5.87a2.436,2.436,0,0,0-2.435,2.435V45.174A2.436,2.436,0,0,0,5.87,47.609H8.057a13.2,13.2,0,0,1,1.412-2.727c.03-.017,1.032-2.117,6.085-2.179.007-.026.012-1.269.027-1.25a8.87,8.87,0,0,1-1.279-.993,5.1,5.1,0,0,1-1.768-3.145,48.036,48.036,0,0,1-.594-5.072c0-3.86,1.54-7.768,7.247-7.768h.147c5.707,0,7.247,3.908,7.247,7.768a48.036,48.036,0,0,1-.594,5.072,5.1,5.1,0,0,1-1.768,3.145,8.656,8.656,0,0,1-1.279.993c.016-.018.021,1.226.027,1.25,5.053.062,6.055,2.162,6.085,2.179a13.2,13.2,0,0,1,1.412,2.727H52.13a2.436,2.436,0,0,0,2.435-2.435ZM48.478,30.565H33.87a1.217,1.217,0,1,1,0-2.435H48.478a1.217,1.217,0,1,1,0,2.435ZM33.87,35.435H36.3a1.217,1.217,0,1,1,0,2.435H33.87a1.217,1.217,0,0,1,0-2.435Zm0,4.87h7.3a1.217,1.217,0,0,1,0,2.435h-7.3a1.217,1.217,0,1,1,0-2.435Zm4.87-3.652a1.216,1.216,0,0,1,1.217-1.217h4.87a1.217,1.217,0,1,1,0,2.435h-4.87A1.216,1.216,0,0,1,38.739,36.652ZM27.783,9.87h2.435V12.3H27.783Z" transform="translate(-1 -5)" fill-rule="evenodd"/>
</svg>
