<svg xmlns="http://www.w3.org/2000/svg" width="51.997" height="51.994" viewBox="0 0 51.997 51.994">
  <path id="Path_4087" data-name="Path 4087" d="M35.8,17.6a17,17,0,0,0-2.678.217A18.076,18.076,0,0,0,24.1,12.832L28.638,7.78a.861.861,0,0,0,.165-.9L27.069,2.546A.867.867,0,0,0,26.263,2H14.131a.867.867,0,0,0-.806.546L11.592,6.879a.861.861,0,0,0,.165.9L16.3,12.832a18.192,18.192,0,0,0,3.9,35.962,17,17,0,0,0,2.678-.217A17.957,17.957,0,0,0,35.8,53.994a18.2,18.2,0,1,0,0-36.4ZM25.119,3.733h.555l1.04,2.6H24.08Zm.936,4.333L22.13,12.425l1.309-4.359ZM23.248,3.733l-1.04,2.6H18.187l-1.04-2.6ZM21.636,8.066l-1.309,4.341h-.26L18.759,8.066ZM14.721,3.733h.555l1.04,2.6H13.681Zm-.381,4.333h2.617l1.309,4.359Zm5.858,39A16.465,16.465,0,0,1,18.551,14.21a17.418,17.418,0,0,1,3.293,0,16.457,16.457,0,0,1,6.161,30.867,12.09,12.09,0,0,1-1.872-1.95A14.042,14.042,0,1,0,19.8,44.445a18.613,18.613,0,0,0,1.672,2.564C21.055,47.035,20.631,47.061,20.2,47.061ZM37.043,23.725a12.132,12.132,0,0,1-1.248,24.2,11.927,11.927,0,0,1-6.231-1.733,18.179,18.179,0,0,0,7.478-22.47ZM25.18,41.654A12,12,0,0,1,23.664,35.8a12.219,12.219,0,0,1,7.149-11.057A12,12,0,0,1,32.329,30.6,12.219,12.219,0,0,1,25.18,41.654ZM18.95,42.668a12.132,12.132,0,0,1,1.248-24.2A11.926,11.926,0,0,1,26.428,20.2,18.179,18.179,0,0,0,18.95,42.668ZM35.8,52.261a16.455,16.455,0,0,1-7.808-30.945,12.09,12.09,0,0,1,1.872,1.95,14.042,14.042,0,1,0,6.335-1.318,18.613,18.613,0,0,0-1.672-2.564c.416-.026.841-.052,1.274-.052a16.465,16.465,0,1,1,0,32.929Z" transform="translate(-1.997 -2)"/>
</svg>
