<svg xmlns="http://www.w3.org/2000/svg" width="57.116" height="69.327" viewBox="0 0 57.116 69.327">
  <g id="Group_501" data-name="Group 501" transform="translate(-931.942 -629)">
    <path id="Path_4093" data-name="Path 4093" d="M18.751,32.037h18.43a15.537,15.537,0,1,0,0-21.751H18.751a10.876,10.876,0,0,0,0,21.751ZM15.469,17.88A4.618,4.618,0,0,1,18.751,16.5h14.7a15.476,15.476,0,0,0,0,9.322h-14.7a4.642,4.642,0,0,1-3.282-7.943Z" transform="matrix(1, -0.017, 0.017, 1, 923.97, 624.49)" fill="#fff"/>
    <path id="Path_4094" data-name="Path 4094" d="M52.931,23.786H34.5a15.537,15.537,0,1,0,0,21.751h18.43a10.876,10.876,0,1,0,0-21.751Zm3.282,14.158a4.618,4.618,0,0,1-3.282,1.379H38.23a15.476,15.476,0,0,0,0-9.322h14.7a4.642,4.642,0,0,1,3.282,7.943Z" transform="matrix(1, -0.017, 0.017, 1, 924.385, 648.274)" fill="#fff"/>
  </g>
</svg>
