<svg xmlns="http://www.w3.org/2000/svg" width="50.978" height="45.64" viewBox="0 0 50.978 45.64">
  <path id="Path_4088" data-name="Path 4088" d="M45.694,47.076A14.855,14.855,0,0,1,49.056,39.4a.915.915,0,0,0,.082-1.089.539.539,0,0,0-.741-.2c-2.483,1.492-5.243,5.3-6.081,8.968h-.262V24.256C42.054,14.174,35.533,6,27.489,6S12.924,14.174,12.924,24.256v22.82h-.262a15.575,15.575,0,0,0-6.081-8.968.541.541,0,0,0-.741.2A.915.915,0,0,0,5.922,39.4a14.851,14.851,0,0,1,3.363,7.677H2V51.64H52.978V47.076ZM22.027,34.525V32.243a1.046,1.046,0,0,1,.91-1.141h9.1a1.046,1.046,0,0,1,.91,1.141v2.282a1.046,1.046,0,0,1-.91,1.141h-9.1A1.046,1.046,0,0,1,22.027,34.525Zm-3.641-11.41a1.046,1.046,0,0,1,.91-1.141H35.682a1.046,1.046,0,0,1,.91,1.141V25.4a1.046,1.046,0,0,1-.91,1.141H19.3a1.046,1.046,0,0,1-.91-1.141Z" transform="translate(-2 -6)"/>
</svg>
