<svg xmlns="http://www.w3.org/2000/svg" width="60.779" height="30.617" viewBox="0 0 60.779 30.617">
  <path id="Path_4074" data-name="Path 4074" d="M650.225,56.968a9.878,9.878,0,0,1,.508-3.156,8.4,8.4,0,0,1,15.265-.4c.177.4.281.441.6.106a8.142,8.142,0,0,1,5.985-2.512,8.059,8.059,0,0,1,8.025,6,.93.93,0,0,0,.791.806c.522.11,1.026.3,1.546.408a6.962,6.962,0,0,1,5.094,6.409,13.59,13.59,0,0,1-.14,2.208.647.647,0,0,0,.338.737,7.566,7.566,0,0,1,2.7,3.38,5.447,5.447,0,0,1-1.132,5.631,7.054,7.054,0,0,1-5.8,2.748c-4.687-.039-9.377-.037-14.062-.134-3.1-.065-6.189-.011-9.285-.091-3.452-.089-6.907-.017-10.357-.108-3.1-.082-6.192.013-9.283-.1a20.607,20.607,0,0,1-4.377-.235A7.618,7.618,0,0,1,634.7,64.413a6.708,6.708,0,0,1,3.257-.892c.614.006.793-.192.892-.726.458-2.473,4.236-5.51,4.236-5.51s4.117-1.136,6.288-.534c.239.067.474.149.713.222A.654.654,0,0,0,650.225,56.968Z" transform="translate(-630.519 -48.716)" fill="#00838f"/>
</svg>
