<svg xmlns="http://www.w3.org/2000/svg" width="500"  viewBox="0 0 760.028 554.865">
                            <path id="Path_2067" data-name="Path 2067" d="M487.4,574.7q-14.283.02-28.564.045c-4.425.009-7.808-1.186-8.358-5.994-.283-2.454-2.054-4.188-3.94-5.6-6.187-4.627-6.265-10.793-4.508-17.021.911-3.225.764-6.415,1.29-9.424.791-4.527-2.139-5.856-4.584-5.923-6-.169-11.718-6.735-18.239-.436-2.065,2-3.972-.978-3.926-3.069.039-1.741.435-3.365-1.29-4.439-9.492-5.91-11.6-15.042-14.92-24.667-3.312-9.6-5.858-20.228-11.755-28.5-3.931-5.514-9.612-11.461-16.365-14.995-4.089-2.138-9.193-2.393-9.531-8.327-.085-1.467-1.987-2.374-3.818-3.037-3.468-1.253-5.925-3.557-5.538-7.543a5.511,5.511,0,0,0-1.893-4.489c-7.45-7.519-16.475-13.852-27-14.9-6.033-.6-11.447-3.337-17.6-3.048-4.715.223-6.833-3.726-4.593-7.739a16.139,16.139,0,0,1,3.577-4.417c4.105-3.465,6.323-7,3.921-12.53-1.332-3.065.9-5.793,4.694-6.029,4.807-.3,9.648-.123,14.474-.147.885,0,1.973-.294,2.624.078,10.023,5.707,17.722,1.78,24.649-5.2,1.41-1.419,3.337-.8,5.555-1.782-4.041-.171-4.2-2.6-4.322-5-.357-7.055-.6-14.116-1.056-21.166-.168-2.581,1.065-3.283,3.5-3.223q4.609.113,9.221-.175c-13.437-1.659-13.713-1.67-13.188-14.785a49.934,49.934,0,0,1,9.727-27.32c3.4-4.746,3.984-9.748,1.911-14.768-3.505-8.5,1.5-14.522,6.484-20.226,4.646-5.32,9.869-4.737,14.794,2.1,2.187,3.037,3.652,1.84,4.669.585,2.808-3.465,9.722-5.376,5.743-11.785a.686.686,0,0,1-.076-.6c4.237-6.763.186-15.1,4.779-21.846a11.862,11.862,0,0,0,1.658-11.234c-1.474-4.318-.175-8.608,5-10.126,5.495-1.611,6.928-5.931,9.207-9.964,4.538-8.029,9.1-16.064,14.143-23.816,4.681-7.2,12.97-7.221,20.47-6.96,5.923.205,6.9-2.348,6.672-6.556-.7-12.636,3.126-23.795,10.647-34.348a27.244,27.244,0,0,0,5.09-18.159,22.782,22.782,0,0,1,1.219-9.77c3.5-10.21,13.092-14.364,23.536-9.681,4.384,1.963,7.309,1.836,8.34-3.02.61-2.879,1.911-4.4,5.164-4.592,3.625-.218,6.686.389,8.259,3.782,2.2,4.752,5.909,8.456,9.777,13.614C539.014,93.5,544.472,81.4,550.251,68.576c3.763,5.81,7.836,9.344,14.745,9.4,3.307.024,4.315,3.763,5.72,6.147,1.943,3.292,4.871,6.642,8.317,6.184,9.9-1.315,20.893-.318,28.108-9.329,2.562-3.2,5.495-.4,6,1.477,2.794,10.379,10.649,5.331,15.654,3.858,7.753-2.281,14.154.4,20.711,2.562,2.449.806,4.267,1.629,6.622.525,1.263,3.162-.874,3.4-3.245,3.192-2.408-.216-4.8-.754-7.217-.287-3.133.607-3.363,1.2-1.688,4.19.219.389.623.836.4,1.078-4.3,4.735.964,7.724,2.213,11.5,1.028,3.115,2.086,6.314,1.421,9.737-.591,3.052-.874,6.126.545,9.132.635,1.346.886,2.951-.616,3.959-1.7,1.147-4.878,1.458-4.17,4.072,1.288,4.748-1.955,9.964,1.861,14.355.9,2.9,1.589,5.549.485,8.826-.975,2.9-2.026,6.653,3.215,8.692,3.386,1.315,3.572,6.314,1.785,8.24-4.7,5.078-3.7,10.66-3.583,16.325-4.936,1.106-9.575,4.363-15.06,1.138a6.939,6.939,0,0,0-6.4.121c-2.185,1.11-4.17,1.344-5.909-.67-2.252-4.054-1.2-8.882-3.689-12.882,2.76,4.268.81,9.8,4.536,13.8,3.119,2.112,5.745-1.464,8.768-.654,4.329,1.162,8.574,2.8,13.216.786,1.493-.648,2.275.812,2.521,2.108.384,2.013.407,4.113,1.805,5.849.973,6.571,4.94,12.476,4.835,19.282,4.72,5.432,8.068,11.4,9.037,18.511.361,2.65,2.9,4.482,4.416,6.7,1.175,2.67,2.567,5.3,1.817,8.355.731-3.16-.5-5.91-1.992-8.612a26.137,26.137,0,0,1-4.92-10.437,30.707,30.707,0,0,0-8.653-14.9c.425-7.089-3.376-13.2-5.168-19.783-.674-2.309-1.548-4.607-.38-7,2.121-1.851,1.3-4.149,1.111-6.361-.308-3.521-.028-6.731,2.562-9.78,3.271-3.853,2.438-8.05-2.01-10.809-3.466-2.149-2.8-5.342-1.9-7.653,1.251-3.218.632-5.931-.212-8.856-3.933-4.8-.8-10.437-2.052-15.558a.585.585,0,0,1,.235-.557c8.765-3.262,2.332-9.93,3.691-14.859,1.6-5.772-.621-11-4.108-15.746-.959-1.3-1.741-2.62-.5-3.914,2.608-2.726,1.9-4.368-2.415-4.609,3.668-3.918,7.544-3.607,11.141-2.823,3.464.756,4.789-.847,5.941-3.255,6.564-1.283,12.073.179,16.882,4.825,5.044,4.873,11.424,7.368,18.573,8.927,9.161,2,13.92,9.744,17.961,16.459a53.13,53.13,0,0,0,20.417,19.542c9.384,5.277,17.48,12.005,21.4,22.164,1.226,3.175,3.254,6.208,6.725,7.389,6.265,2.132,9.393,6.912,13.386,11.418,4.717,5.322,4.02,9.569-.014,14.059-8.064,8.971-12.678,20.315-23.028,27.855-3.719,2.709-4.3,8.683-3.284,13.392,1.518,7.035,1.237,14.046,1.171,21.1-.727,2.672-2.62,3.272-5.391,3.167-5.26-.2-10.532-.056-15.8-.058-2.16,0-4.381-.164-5.741,2.262-.448.43,1.481.6.72.177-.186-.106-.087-.21-.067-.356.29-1.957,1.964-2.026,3.411-1.994,8.089.184,16.192-.611,24.265.341,11.976,2.486,23.177-1.145,34.392-4.087,5.253-1.378,9.092-.857,14.538,1.378,9.388,3.856,3.673,6.96.823,9.69-2.712,2.6-2.949,6.307-6.044,8.729-2.256,1.765.29,4.367,1.783,5.886a16.581,16.581,0,0,1,4.545,8.733c.927,4.637,2.79,8.726,7.82,10.841,2.21.929,3,3,3.627,5,.927,2.994,2.449,5.24,6.065,5.8,2.082.322,4.147,1.5,3.938,3.607-.876,8.817,9.313,12.137,10.932,19.745.251,1.177,2.61,2.469,4.2,2.793,7.861,1.6,12.988,6.912,18.085,11.917,9.688,9.515,23.113,10.9,35.239,14.844,40.724,13.23,81.638,25.933,122.507,38.761a24.2,24.2,0,0,0,7.151,1c12.174-.007,24.346-.205,36.517-.255a51.565,51.565,0,0,1,5.9.648c-9.63,9.232-18.612,18.379-28.193,26.937-38.674,34.545-76.28,70.053-111.578,107.678a12.912,12.912,0,0,0-1.771,1.851c-6.951,11.511-18.1,12.318-30.266,10.5-24.129-3.6-47.03-.393-68.471,10.882-6.7,3.523-13.8,6.566-15.622,14.831-.7,3.195-4.094,4.3-7.211,4.743-9.368,1.344-18.538,3.864-28.15,3.8-6.939-.047-12.086,3.268-15.4,8.845-1.109,1.862-2.776,3.635-4.453,3-9.076-3.426-17.8.743-26.692.745-5.768,0-10.017-1.173-13.8-5.579-3.1-3.612-7.551-6.2-11.351-9.292a3.393,3.393,0,0,0-4.1-.477c-13.848,5.929-27.786,11.673-41.676,17.518-1.187.5-2.921,1.134-3.206,2.039-2.452,7.776-9.782,12.1-14.274,18.384-1.463,2.045-1.559,2.417-4.632,1.575-7.891-2.166-16.082-3.97-24.47-3.627-6.373.261-11.866-2.175-17.639-4.16-7.514-2.583-15.451.616-23.2-.566-2.631-.4-5.327-.287-7.443-2.093-11.868-10.137-26.1-17.038-39.427-25.149-6.589-4.009-11.914-10.085-20.155-11.573-8.823-.983-8.88-1.052-4.464-8.37a58.142,58.142,0,0,1,4.382-6.072c2.056-2.588,2.953-5.469.7-8.474-.274-11.848,4.041-15.807,18.113-13.353,7.659,1.335,13.347-1.048,19.168-3.959a9.458,9.458,0,0,1,8.6-.4c5.566,2.151,5.6,2.069,5.934-4.184,3.379-4.136,2.045-9.487,3.073-13.323-1.582,3.316.672,8.446-2.535,12.275-1.014,1.309-.485,2.814-.6,4.229-.2,2.324-1.75,3.184-3.528,1.905-6.194-4.458-11.2-.436-16.3,1.866-4.117,1.86-7.885,3.359-12.535,1.376-1.877-.8-4.365-.164-6.576-.166-10.748-.009-14.934,5.376-11.988,15.4a5.091,5.091,0,0,1-.674,5.236c-2.979,4.257-6.079,8.444-8.321,13.111C490.028,574.29,488.411,573.984,487.4,574.7Z" transform="translate(-301.371 -68.576)" fill="#8aaecb" opacity="0.54"/>
                        </svg>